<?xml version="1.0" encoding="utf-8"?>
<!-- Generator: Adobe Illustrator 23.0.1, SVG Export Plug-In . SVG Version: 6.00 Build 0)  -->
<svg version="1.1" id="Calque_1" xmlns="http://www.w3.org/2000/svg" xmlns:xlink="http://www.w3.org/1999/xlink" x="0px" y="0px"
	 viewBox="0 0 595.28 571.55" style="enable-background:new 0 0 595.28 571.55;" xml:space="preserve">
<style type="text/css">
	.st0{fill:none;stroke:#000000;stroke-width:17;stroke-miterlimit:10;}
</style>
<g>
	<path class="st0" d="M266.78,18.79c13.35,0,26.7,0,40.05,0c2.23,0.62,4.42,1.52,6.7,1.82c113.03,14.95,187.94,77.06,225.71,183.82
		c6.68,18.87,8.54,39.44,12.62,59.22c0,13.34,0,26.68,0,40.03c-0.67,2.97-1.58,5.91-1.99,8.91
		c-14.07,103.32-69.72,175.63-165.12,216.2c-24.37,10.36-51.86,13.37-77.92,19.76c-13.35,0-26.7,0-40.05,0
		c-2.21-0.66-4.38-1.68-6.64-1.92C151.42,535.08,62.45,461.07,32.31,356.21c-4.92-17.11-7.11-35-10.56-52.53
		c0-13.34,0-26.68,0-40.03c0.67-2.96,1.64-5.89,1.98-8.89c12.13-108.99,89-198.69,194.89-226.64
		C234.39,23.95,250.71,21.85,266.78,18.79z M522.85,337.94c20.82-73.99-1.92-174.98-80.59-241.19
		C368.44,34.63,259.9,22.27,174.58,68.47C96.59,110.7,54.14,177.03,44.37,264.9c2.51,0.68,3.22,1.05,3.9,1.02
		c1.95-0.1,3.93-0.21,5.84-0.58c42.23-8.07,82.76-3.16,120.84,17.08c8.57,4.55,14.35,3.19,21.87-1.93
		c34.91-23.81,72.87-39.29,115.83-40.65c44.02-1.39,83.35,13.55,119.72,36.1C463.23,295.06,492.39,316.91,522.85,337.94z
		 M509.1,357.95c-39.07-32.8-78.31-62.47-124.24-82.02c-30.21-12.86-61.51-18.14-94.22-12.13c-30.01,5.51-57,17.71-82.18,35.56
		c24.55,15.56,47.9,30.69,71.69,45.07c3.41,2.06,9.57,2,13.47,0.46c68.39-27.14,133.86-23.88,195.95,17.74
		c2.51,1.68,5.04,3.31,7.74,5.08C501.11,364.56,504.4,361.84,509.1,357.95z M101.99,374.28c1.24,0.29,3.49,1.06,5.8,1.32
		c33.92,3.84,67.34,9.49,98.18,25.38c1.86,0.96,5.5,0.58,7.23-0.67c17.35-12.5,34.48-25.32,53-39.04
		c-25.54-15.76-49.39-30.69-73.57-45.06c-2.35-1.4-7.53-0.51-10.05,1.24C155.64,336.12,128.97,355.17,101.99,374.28z M60.72,371.03
		c36.47-22.72,71.11-44.3,107.64-67.06c-39.61-21.99-77.84-24.46-117.3-15.96c-2.7,0.58-6.65,4.93-6.55,7.39
		C45.5,320.04,49.88,344.08,60.72,371.03z M261.7,471.69c-14.63-11.76-29.3-22.82-43.06-34.91c-7.32-6.42-12.94-6.36-21.59-2.15
		c-13.6,6.62-28.16,11.45-42.64,16.01c-10.95,3.45-22.41,5.31-35.32,8.25c25.25,23.98,52.78,41.11,84.04,52.18
		c2.52,0.89,6.75-0.39,9.12-2.12C228.64,496.94,244.73,484.55,261.7,471.69z M284.67,374.67c-18.27,13.76-36.89,27.79-56.53,42.58
		c16.55,12.77,32.14,24.56,47.42,36.73c5.53,4.4,9.88,3.35,15.68,0.21c19.59-10.58,39.55-20.49,59.43-30.53
		c4.56-2.3,9.35-4.15,14.24-6.3C337.97,403.02,312.12,389.27,284.67,374.67z M478.36,383.11c-44.64-40.49-137.3-39.73-170.94-18.07
		c31.63,13.91,61.16,26.96,90.78,39.78c2.28,0.99,5.49,1,7.92,0.28C429.25,398.21,452.3,391.08,478.36,383.11z M466.35,445.69
		c-60.28-19.98-74.74-18.99-129.73,8.54c-4.19,2.1-8.39,4.17-12.5,6.42c-5.13,2.8-10.16,5.78-17.59,10.02
		c35.13,10.69,67.73,15.61,101.08,9.16C430.6,475.38,451.8,466.76,466.35,445.69z M385.14,505.43c-4.04-0.95-5.04-1.39-6.04-1.4
		c-31.2-0.1-61.51-4.74-90.3-17.43c-2.2-0.97-5.83-1.5-7.53-0.35c-15.66,10.54-31.04,21.49-48.94,34.03
		C286.39,532.12,335.08,527.03,385.14,505.43z M70.65,394.74c5.33,9.01,9.97,15.72,13.47,22.97c8.54,17.67,21.27,23.83,40.52,17.73
		c19.99-6.33,40.38-11.38,60.6-16.99c-0.28-1.33-0.56-2.65-0.84-3.98C148.68,400.97,111.37,396.33,70.65,394.74z M446.55,418.27
		c5.95,1.33,10.14,2.25,14.33,3.2c24.96,5.67,25.15,5.58,36.55-16.79c0.18-0.35,0.45-0.69,0.5-1.06c0.27-2.07,0.48-4.15,0.7-6.23
		c-2.1-0.19-4.58-1.19-6.25-0.43C477.53,403.64,462.82,410.65,446.55,418.27z"/>
	<path class="st0" d="M306.84,548.55c26.06-6.39,53.55-9.4,77.92-19.76c95.4-40.56,151.05-112.87,165.12-216.2
		c0.41-3.01,1.31-5.94,1.99-8.91"/>
	<path class="st0" d="M21.75,303.68c3.45,17.53,5.64,35.42,10.56,52.53c30.14,104.86,119.11,178.87,227.83,190.42
		c2.26,0.24,4.43,1.26,6.64,1.92"/>
	<path class="st0" d="M266.78,18.79c-16.07,3.06-32.39,5.16-48.17,9.33C112.73,56.08,35.86,145.77,23.73,254.76
		c-0.33,3-1.3,5.93-1.98,8.89"/>
	<path class="st0" d="M551.87,263.66c-4.08-19.78-5.94-40.35-12.62-59.22C501.48,97.67,426.56,35.56,313.53,20.61
		c-2.27-0.3-4.47-1.2-6.7-1.82"/>
	<path class="st0" d="M522.85,337.94c-30.46-21.02-59.62-42.87-90.47-62c-36.37-22.55-75.7-37.49-119.72-36.1
		c-42.96,1.36-80.92,16.83-115.83,40.65c-7.52,5.13-13.31,6.49-21.87,1.93c-38.08-20.24-78.61-25.15-120.84-17.08
		c-1.92,0.37-3.89,0.48-5.84,0.58c-0.69,0.03-1.4-0.34-3.9-1.02c9.77-87.87,52.22-154.2,130.22-196.43
		c85.32-46.2,193.86-33.84,267.67,28.28C520.93,162.96,543.67,263.94,522.85,337.94z"/>
	<path class="st0" d="M509.1,357.95c-4.71,3.89-7.99,6.61-11.8,9.76c-2.69-1.77-5.23-3.4-7.74-5.08
		c-62.08-41.61-127.56-44.87-195.95-17.74c-3.9,1.55-10.06,1.6-13.47-0.46c-23.79-14.38-47.13-29.51-71.69-45.07
		c25.17-17.85,52.17-30.05,82.18-35.56c32.72-6.01,64.01-0.73,94.22,12.13C430.8,295.48,470.04,325.14,509.1,357.95z"/>
	<path class="st0" d="M101.99,374.28c26.99-19.12,53.65-38.17,80.59-56.83c2.53-1.75,7.71-2.64,10.05-1.24
		c24.18,14.37,48.03,29.3,73.57,45.06c-18.53,13.72-35.65,26.54-53,39.04c-1.73,1.25-5.37,1.63-7.23,0.67
		c-30.83-15.88-64.26-21.53-98.18-25.38C105.48,375.34,103.22,374.57,101.99,374.28z"/>
	<path class="st0" d="M60.72,371.03c-10.84-26.95-15.22-50.98-16.21-75.63c-0.1-2.46,3.85-6.81,6.55-7.39
		c39.46-8.5,77.69-6.04,117.3,15.96C131.83,326.72,97.19,348.3,60.72,371.03z"/>
	<path class="st0" d="M261.7,471.69c-16.97,12.86-33.07,25.25-49.45,37.26c-2.36,1.73-6.59,3.02-9.12,2.12
		c-31.26-11.06-58.79-28.2-84.04-52.18c12.91-2.95,24.37-4.8,35.32-8.25c14.48-4.56,29.04-9.39,42.64-16.01
		c8.65-4.21,14.27-4.27,21.59,2.15C232.41,448.86,247.07,459.93,261.7,471.69z"/>
	<path class="st0" d="M284.67,374.67c27.44,14.6,53.29,28.35,80.25,42.69c-4.9,2.15-9.69,3.99-14.24,6.3
		c-19.88,10.05-39.83,19.96-59.43,30.53c-5.8,3.13-10.15,4.19-15.68-0.21c-15.28-12.17-30.87-23.95-47.42-36.73
		C247.79,402.46,266.41,388.43,284.67,374.67z"/>
	<path class="st0" d="M478.36,383.11c-26.06,7.97-49.11,15.11-72.24,21.99c-2.43,0.72-5.64,0.71-7.92-0.28
		c-29.63-12.81-59.15-25.87-90.78-39.78C341.05,343.38,433.71,342.62,478.36,383.11z"/>
	<path class="st0" d="M466.35,445.69c-14.55,21.08-35.75,29.69-58.74,34.14c-33.35,6.45-65.95,1.54-101.08-9.16
		c7.43-4.24,12.46-7.21,17.59-10.02c4.11-2.25,8.31-4.32,12.5-6.42C391.62,426.7,406.07,425.7,466.35,445.69z"/>
	<path class="st0" d="M385.14,505.43c-50.07,21.6-98.76,26.7-152.8,14.84c17.9-12.54,33.28-23.49,48.94-34.03
		c1.7-1.14,5.33-0.62,7.53,0.35c28.79,12.7,59.09,17.33,90.3,17.43C380.11,504.03,381.1,504.47,385.14,505.43z"/>
	<path class="st0" d="M70.65,394.74c40.72,1.6,78.03,6.23,113.75,19.74c0.28,1.33,0.56,2.65,0.84,3.98
		c-20.22,5.61-40.61,10.66-60.6,16.99c-19.25,6.1-31.98-0.06-40.52-17.73C80.61,410.46,75.98,403.74,70.65,394.74z"/>
	<path class="st0" d="M446.55,418.27c16.27-7.62,30.98-14.62,45.83-21.32c1.68-0.76,4.15,0.24,6.25,0.43
		c-0.23,2.08-0.44,4.16-0.7,6.23c-0.05,0.37-0.32,0.71-0.5,1.06c-11.4,22.37-11.59,22.46-36.55,16.79
		C456.7,420.51,452.51,419.6,446.55,418.27z"/>
</g>
</svg>
