<?xml version="1.0" encoding="utf-8"?>
<!-- Generator: Adobe Illustrator 23.0.1, SVG Export Plug-In . SVG Version: 6.00 Build 0)  -->
<svg version="1.1" id="Calque_1" xmlns="http://www.w3.org/2000/svg" xmlns:xlink="http://www.w3.org/1999/xlink" x="0px" y="0px"
	 viewBox="0 0 595.28 581.18" style="enable-background:new 0 0 595.28 581.18;" xml:space="preserve">
<style type="text/css">
	.st0{stroke:#000000;stroke-width:7;stroke-miterlimit:10;}
	.st1{fill:#FFFFFF;stroke:#000000;stroke-width:7;stroke-miterlimit:10;}
</style>
<g>
	<path class="st0" d="M278.34,25.35c13.34,0,26.68,0,40.03,0c2.23,0.62,4.42,1.52,6.69,1.82
		c112.95,14.95,187.81,77.06,225.56,183.82c6.67,18.87,8.53,39.44,12.61,59.22c0,13.34,0,26.68,0,40.03
		c-0.67,2.97-1.58,5.91-1.99,8.91c-14.06,103.32-69.68,175.63-165.01,216.2c-24.35,10.36-51.83,13.37-77.87,19.76
		c-13.34,0-26.68,0-40.03,0c-2.21-0.66-4.38-1.68-6.64-1.92C163.05,541.64,74.14,467.63,44.02,362.77
		c-4.91-17.11-7.1-35-10.55-52.53c0-13.34,0-26.68,0-40.03c0.67-2.96,1.64-5.89,1.97-8.89C47.57,152.33,124.39,62.63,230.2,34.68
		C245.97,30.51,262.28,28.41,278.34,25.35z M534.23,344.49c20.81-73.99-1.91-174.98-80.54-241.19
		C379.92,41.19,271.46,28.83,186.2,75.03C108.26,117.26,65.84,183.59,56.07,271.46c2.51,0.68,3.21,1.05,3.9,1.02
		c1.95-0.1,3.92-0.21,5.84-0.58c42.21-8.07,82.7-3.16,120.76,17.08c8.56,4.55,14.34,3.19,21.86-1.93
		c34.89-23.81,72.82-39.29,115.75-40.65c43.99-1.39,83.3,13.55,119.64,36.1C474.65,301.62,503.79,323.47,534.23,344.49z
		 M520.5,364.5c-39.04-32.8-78.26-62.47-124.15-82.02c-30.19-12.86-61.47-18.14-94.16-12.13c-29.99,5.51-56.96,17.71-82.12,35.56
		c24.54,15.56,47.86,30.69,71.64,45.07c3.41,2.06,9.56,2,13.46,0.46c68.34-27.14,133.77-23.88,195.82,17.74
		c2.5,1.68,5.04,3.31,7.73,5.08C512.51,371.11,515.79,368.4,520.5,364.5z M113.65,380.84c1.23,0.29,3.48,1.06,5.79,1.32
		c33.9,3.84,67.3,9.49,98.11,25.38c1.86,0.96,5.5,0.58,7.23-0.67c17.34-12.5,34.46-25.32,52.97-39.04
		c-25.52-15.76-49.36-30.69-73.52-45.06c-2.35-1.4-7.52-0.51-10.05,1.24C167.27,342.67,140.62,361.72,113.65,380.84z M72.41,377.58
		c36.45-22.72,71.06-44.3,107.57-67.06c-39.58-21.99-77.79-24.46-117.22-15.96c-2.69,0.58-6.64,4.93-6.54,7.39
		C57.2,326.6,61.57,350.63,72.41,377.58z M273.26,478.24c-14.62-11.76-29.28-22.82-43.03-34.91c-7.31-6.42-12.93-6.36-21.57-2.15
		c-13.59,6.62-28.14,11.45-42.61,16.01c-10.95,3.45-22.4,5.31-35.3,8.25c25.23,23.98,52.75,41.11,83.99,52.18
		c2.52,0.89,6.75-0.39,9.11-2.12C240.22,503.5,256.3,491.1,273.26,478.24z M296.22,381.22c-18.25,13.76-36.86,27.79-56.49,42.58
		c16.54,12.77,32.12,24.56,47.39,36.73c5.53,4.4,9.87,3.35,15.67,0.21c19.58-10.58,39.52-20.49,59.39-30.53
		c4.55-2.3,9.34-4.15,14.23-6.3C349.47,409.58,323.64,395.82,296.22,381.22z M489.77,389.66c-44.61-40.49-137.21-39.73-170.82-18.07
		c31.61,13.91,61.12,26.96,90.72,39.78c2.28,0.99,5.49,1,7.91,0.28C440.69,404.77,463.73,397.64,489.77,389.66z M477.77,452.24
		c-60.24-19.98-74.69-18.99-129.64,8.54c-4.19,2.1-8.39,4.17-12.49,6.42c-5.13,2.8-10.16,5.78-17.58,10.02
		c35.11,10.69,67.69,15.61,101.01,9.16C442.05,481.93,463.23,473.32,477.77,452.24z M396.62,511.98c-4.04-0.95-5.03-1.39-6.03-1.4
		c-31.18-0.1-61.47-4.74-90.24-17.43c-2.2-0.97-5.83-1.5-7.53-0.35c-15.65,10.54-31.02,21.49-48.9,34.03
		C297.93,538.68,346.58,533.58,396.62,511.98z M82.33,401.29c5.33,9.01,9.96,15.72,13.47,22.97c8.54,17.67,21.26,23.83,40.49,17.73
		c19.97-6.33,40.36-11.38,60.56-16.99c-0.28-1.33-0.56-2.65-0.84-3.98C160.31,407.52,123.03,402.89,82.33,401.29z M457.99,424.83
		c5.95,1.33,10.14,2.25,14.32,3.2c24.95,5.67,25.14,5.58,36.53-16.79c0.18-0.35,0.45-0.69,0.5-1.06c0.27-2.07,0.48-4.15,0.7-6.23
		c-2.1-0.19-4.57-1.19-6.25-0.43C488.94,410.2,474.24,417.2,457.99,424.83z"/>
	<path class="st0" d="M318.36,555.1c26.04-6.39,53.52-9.4,77.87-19.76c95.34-40.56,150.95-112.87,165.01-216.2
		c0.41-3.01,1.31-5.94,1.99-8.91"/>
	<path class="st0" d="M33.47,310.24c3.45,17.53,5.64,35.42,10.55,52.53C74.14,467.63,163.05,541.64,271.7,553.18
		c2.25,0.24,4.43,1.26,6.64,1.92"/>
	<path class="st0" d="M278.34,25.35c-16.06,3.06-32.37,5.16-48.13,9.33C124.39,62.63,47.57,152.33,35.44,261.32
		c-0.33,3-1.3,5.93-1.97,8.89"/>
	<path class="st0" d="M563.23,270.21c-4.08-19.78-5.94-40.35-12.61-59.22C512.87,104.23,438.01,42.12,325.06,27.17
		c-2.27-0.3-4.46-1.2-6.69-1.82"/>
	<path class="st1" d="M534.23,344.49c-30.44-21.02-59.58-42.87-90.41-62c-36.34-22.55-75.65-37.49-119.64-36.1
		c-42.93,1.36-80.87,16.83-115.75,40.65c-7.51,5.13-13.3,6.49-21.86,1.93c-38.06-20.24-78.55-25.15-120.76-17.08
		c-1.91,0.37-3.89,0.48-5.84,0.58c-0.69,0.03-1.39-0.34-3.9-1.02c9.77-87.87,52.19-154.2,130.13-196.43
		c85.26-46.2,193.73-33.84,267.49,28.28C532.31,169.51,555.04,270.5,534.23,344.49z"/>
	<path class="st1" d="M520.5,364.5c-4.7,3.89-7.99,6.61-11.79,9.76c-2.69-1.77-5.23-3.4-7.73-5.08
		c-62.04-41.61-127.47-44.87-195.82-17.74c-3.9,1.55-10.05,1.6-13.46-0.46c-23.77-14.38-47.1-29.51-71.64-45.07
		c25.16-17.85,52.13-30.05,82.12-35.56c32.69-6.01,63.97-0.73,94.16,12.13C442.24,302.03,481.45,331.7,520.5,364.5z"/>
	<path class="st1" d="M113.65,380.84c26.97-19.12,53.61-38.17,80.53-56.83c2.53-1.75,7.7-2.64,10.05-1.24
		c24.16,14.37,48,29.3,73.52,45.06c-18.51,13.72-35.63,26.54-52.97,39.04c-1.73,1.25-5.37,1.63-7.23,0.67
		c-30.81-15.88-64.21-21.53-98.11-25.38C117.14,381.9,114.89,381.13,113.65,380.84z"/>
	<path class="st1" d="M72.41,377.58c-10.83-26.95-15.21-50.98-16.2-75.63c-0.1-2.46,3.85-6.81,6.54-7.39
		c39.43-8.5,77.64-6.04,117.22,15.96C143.47,333.28,108.86,354.86,72.41,377.58z"/>
	<path class="st1" d="M273.26,478.24c-16.96,12.86-33.05,25.25-49.42,37.26c-2.36,1.73-6.59,3.02-9.11,2.12
		c-31.24-11.06-58.75-28.2-83.99-52.18c12.9-2.95,24.35-4.8,35.3-8.25c14.47-4.56,29.02-9.39,42.61-16.01
		c8.64-4.21,14.26-4.27,21.57,2.15C243.98,455.42,258.64,466.48,273.26,478.24z"/>
	<path class="st1" d="M296.22,381.22c27.42,14.6,53.26,28.35,80.19,42.69c-4.89,2.15-9.68,3.99-14.23,6.3
		c-19.86,10.05-39.81,19.96-59.39,30.53c-5.8,3.13-10.14,4.19-15.67-0.21c-15.27-12.17-30.85-23.95-47.39-36.73
		C259.35,409.01,277.96,394.98,296.22,381.22z"/>
	<path class="st1" d="M489.77,389.66c-26.04,7.97-49.08,15.11-72.19,21.99c-2.42,0.72-5.63,0.71-7.91-0.28
		c-29.61-12.81-59.11-25.87-90.72-39.78C352.56,349.93,445.16,349.18,489.77,389.66z"/>
	<path class="st1" d="M477.77,452.24c-14.54,21.08-35.73,29.69-58.7,34.14c-33.32,6.45-65.9,1.54-101.01-9.16
		c7.42-4.24,12.45-7.21,17.58-10.02c4.11-2.25,8.31-4.32,12.49-6.42C403.09,433.25,417.53,432.26,477.77,452.24z"/>
	<path class="st1" d="M396.62,511.98c-50.03,21.6-98.69,26.7-152.7,14.84c17.89-12.54,33.26-23.49,48.9-34.03
		c1.7-1.14,5.33-0.62,7.53,0.35c28.77,12.7,59.05,17.33,90.24,17.43C391.58,510.59,392.58,511.03,396.62,511.98z"/>
	<path class="st1" d="M82.33,401.29c40.7,1.6,77.98,6.23,113.68,19.74c0.28,1.33,0.56,2.65,0.84,3.98
		c-20.2,5.61-40.59,10.66-60.56,16.99c-19.24,6.1-31.96-0.06-40.49-17.73C92.29,417.01,87.66,410.3,82.33,401.29z"/>
	<path class="st1" d="M457.99,424.83c16.26-7.62,30.96-14.62,45.8-21.32c1.68-0.76,4.15,0.24,6.25,0.43
		c-0.23,2.08-0.44,4.16-0.7,6.23c-0.05,0.37-0.32,0.71-0.5,1.06c-11.39,22.37-11.58,22.46-36.53,16.79
		C468.12,427.07,463.94,426.15,457.99,424.83z"/>
</g>
</svg>
