<?xml version="1.0" encoding="utf-8"?>
<!-- Generator: Adobe Illustrator 23.0.1, SVG Export Plug-In . SVG Version: 6.00 Build 0)  -->
<svg version="1.1" id="Calque_1" xmlns="http://www.w3.org/2000/svg" xmlns:xlink="http://www.w3.org/1999/xlink" x="0px" y="0px"
	 viewBox="0 0 595.28 841.89" style="enable-background:new 0 0 595.28 841.89;" xml:space="preserve">
<style type="text/css">
	.st0{fill:#FFFFFF;}
</style>
<g>
	<path d="M290,309.89c5.67,0,11.33,0,17,0c0.95,0.26,1.88,0.65,2.84,0.77c47.97,6.35,79.77,32.73,95.8,78.07
		c2.83,8.01,3.62,16.75,5.36,25.15c0,5.67,0,11.33,0,17c-0.29,1.26-0.67,2.51-0.84,3.79c-5.97,43.88-29.59,74.6-70.08,91.82
		c-10.34,4.4-22.01,5.68-33.07,8.39c-5.67,0-11.33,0-17,0c-0.94-0.28-1.86-0.71-2.82-0.82c-46.14-4.9-83.91-36.34-96.7-80.87
		c-2.09-7.27-3.02-14.86-4.48-22.31c0-5.67,0-11.33,0-17c0.29-1.26,0.7-2.5,0.84-3.78c5.15-46.29,37.78-84.39,82.72-96.26
		C276.25,312.08,283.18,311.19,290,309.89z M398.68,445.44c8.84-31.43-0.81-74.32-34.21-102.44
		c-31.33-26.38-77.4-31.63-113.61-12.01c-33.1,17.94-51.12,46.11-55.27,83.43c1.06,0.29,1.36,0.45,1.66,0.43
		c0.83-0.04,1.67-0.09,2.48-0.25c17.93-3.43,35.13-1.34,51.29,7.26c3.64,1.93,6.09,1.36,9.28-0.82
		c14.82-10.11,30.93-16.69,49.16-17.26c18.69-0.59,35.38,5.75,50.81,15.33C373.38,427.23,385.75,436.51,398.68,445.44z
		 M392.85,453.94c-16.58-13.93-33.24-26.53-52.73-34.83c-12.82-5.46-26.11-7.7-39.99-5.15c-12.74,2.34-24.19,7.52-34.88,15.1
		c10.42,6.61,20.33,13.03,30.43,19.14c1.45,0.87,4.06,0.85,5.72,0.19c29.03-11.53,56.82-10.14,83.17,7.53
		c1.06,0.71,2.14,1.41,3.28,2.16C389.46,456.75,390.85,455.59,392.85,453.94z M220.06,460.88c0.52,0.12,1.48,0.45,2.46,0.56
		c14.4,1.63,28.58,4.03,41.67,10.78c0.79,0.41,2.33,0.25,3.07-0.28c7.37-5.31,14.63-10.76,22.5-16.58
		c-10.84-6.69-20.96-13.03-31.23-19.14c-1-0.59-3.19-0.22-4.27,0.53C242.83,444.67,231.51,452.76,220.06,460.88z M202.54,459.49
		c15.48-9.65,30.18-18.82,45.69-28.48c-16.81-9.34-33.04-10.39-49.79-6.78c-1.14,0.25-2.82,2.09-2.78,3.14
		C196.08,437.84,197.94,448.05,202.54,459.49z M287.84,502.25c-6.21-4.99-12.43-9.69-18.28-14.83c-3.11-2.73-5.49-2.7-9.16-0.91
		c-5.77,2.81-11.95,4.86-18.1,6.8c-4.65,1.47-9.51,2.25-14.99,3.51c10.72,10.18,22.4,17.46,35.67,22.16
		c1.07,0.38,2.87-0.17,3.87-0.9C273.81,512.97,280.64,507.71,287.84,502.25z M297.59,461.04c-7.75,5.84-15.66,11.8-23.99,18.09
		c7.03,5.43,13.64,10.43,20.13,15.6c2.35,1.87,4.19,1.42,6.66,0.09c8.32-4.49,16.79-8.7,25.22-12.97c1.93-0.98,3.97-1.76,6.05-2.67
		C320.21,473.08,309.24,467.24,297.59,461.04z M379.8,464.62c-18.95-17.2-58.28-16.87-72.55-7.67
		c13.43,5.91,25.96,11.45,38.53,16.89c0.97,0.42,2.33,0.42,3.36,0.12C358.96,471.04,368.74,468.01,379.8,464.62z M374.71,491.2
		c-25.59-8.49-31.72-8.07-55.06,3.63c-1.78,0.89-3.56,1.77-5.31,2.73c-2.18,1.19-4.31,2.45-7.47,4.26
		c14.91,4.54,28.75,6.63,42.9,3.89C359.53,503.81,368.53,500.15,374.71,491.2z M340.24,516.58c-1.71-0.41-2.14-0.59-2.56-0.59
		c-13.24-0.04-26.11-2.01-38.33-7.4c-0.93-0.41-2.47-0.64-3.2-0.15c-6.65,4.48-13.17,9.13-20.77,14.45
		C298.32,527.91,318.99,525.75,340.24,516.58z M206.75,469.56c2.26,3.83,4.23,6.68,5.72,9.76c3.63,7.51,9.03,10.12,17.2,7.53
		c8.48-2.69,17.14-4.83,25.72-7.22c-0.12-0.56-0.24-1.13-0.36-1.69C239.87,472.21,224.04,470.24,206.75,469.56z M366.3,479.56
		c2.53,0.56,4.31,0.95,6.08,1.36c10.6,2.41,10.68,2.37,15.52-7.13c0.08-0.15,0.19-0.29,0.21-0.45c0.11-0.88,0.2-1.76,0.3-2.65
		c-0.89-0.08-1.94-0.5-2.65-0.18C379.45,473.35,373.21,476.32,366.3,479.56z"/>
	<path class="st0" d="M307,534.89c11.06-2.71,22.73-3.99,33.07-8.39c40.49-17.23,64.11-47.94,70.08-91.82
		c0.17-1.28,0.56-2.52,0.84-3.79c0,34.58,0,69.17,0,104C376.33,534.89,341.67,534.89,307,534.89z"/>
	<path class="st0" d="M186,430.89c1.46,7.44,2.39,15.04,4.48,22.31c12.79,44.54,50.56,75.97,96.7,80.87
		c0.96,0.1,1.88,0.54,2.82,0.82c-34.58,0-69.17,0-104,0C186,500.22,186,465.56,186,430.89z"/>
	<path class="st0" d="M290,309.89c-6.82,1.3-13.75,2.19-20.44,3.96c-44.94,11.87-77.57,49.97-82.72,96.26
		c-0.14,1.27-0.55,2.52-0.84,3.78c0-34.58,0-69.17,0-104C220.67,309.89,255.33,309.89,290,309.89z"/>
	<path class="st0" d="M411,413.89c-1.73-8.4-2.52-17.14-5.36-25.15c-16.03-45.35-47.83-71.72-95.8-78.07
		c-0.96-0.13-1.9-0.51-2.84-0.77c34.67,0,69.33,0,104,0C411,344.56,411,379.22,411,413.89z"/>
	<path class="st0" d="M398.68,445.44c-12.93-8.93-25.3-18.21-38.4-26.33c-15.44-9.58-32.13-15.92-50.81-15.33
		c-18.23,0.58-34.35,7.15-49.16,17.26c-3.19,2.18-5.65,2.76-9.28,0.82c-16.16-8.6-33.36-10.68-51.29-7.26
		c-0.81,0.16-1.65,0.21-2.48,0.25c-0.29,0.01-0.59-0.15-1.66-0.43c4.15-37.32,22.16-65.49,55.27-83.43
		c36.21-19.62,82.28-14.37,113.61,12.01C397.87,371.12,407.52,414.01,398.68,445.44z"/>
	<path class="st0" d="M392.85,453.94c-2,1.65-3.39,2.81-5.01,4.14c-1.14-0.75-2.22-1.44-3.28-2.16
		c-26.35-17.67-54.14-19.06-83.17-7.53c-1.66,0.66-4.27,0.68-5.72-0.19c-10.1-6.11-20-12.53-30.43-19.14
		c10.68-7.58,22.14-12.76,34.88-15.1c13.89-2.55,27.17-0.31,39.99,5.15C359.61,427.41,376.27,440.01,392.85,453.94z"/>
	<path class="st0" d="M220.06,460.88c11.45-8.12,22.77-16.21,34.2-24.14c1.07-0.74,3.27-1.12,4.27-0.53
		c10.26,6.1,20.39,12.44,31.23,19.14c-7.86,5.83-15.13,11.27-22.5,16.58c-0.74,0.53-2.28,0.69-3.07,0.28
		c-13.09-6.75-27.27-9.15-41.67-10.78C221.53,461.33,220.58,461,220.06,460.88z"/>
	<path class="st0" d="M202.54,459.49c-4.6-11.45-6.46-21.65-6.88-32.12c-0.04-1.04,1.64-2.89,2.78-3.14
		c16.75-3.61,32.97-2.56,49.79,6.78C232.72,440.68,218.02,449.84,202.54,459.49z"/>
	<path class="st0" d="M287.84,502.25c-7.2,5.46-14.04,10.73-20.99,15.82c-1,0.74-2.8,1.28-3.87,0.9
		c-13.27-4.7-24.95-11.98-35.67-22.16c5.48-1.25,10.34-2.04,14.99-3.51c6.14-1.94,12.33-3.99,18.1-6.8
		c3.67-1.79,6.06-1.82,9.16,0.91C275.41,492.55,281.63,497.25,287.84,502.25z"/>
	<path class="st0" d="M297.59,461.04c11.65,6.2,22.62,12.04,34.06,18.13c-2.08,0.91-4.11,1.7-6.05,2.67
		c-8.44,4.27-16.91,8.48-25.22,12.97c-2.46,1.33-4.31,1.78-6.66-0.09c-6.49-5.17-13.1-10.17-20.13-15.6
		C281.94,472.84,289.84,466.88,297.59,461.04z"/>
	<path class="st0" d="M379.8,464.62c-11.06,3.39-20.84,6.42-30.66,9.34c-1.03,0.31-2.39,0.3-3.36-0.12
		c-12.57-5.44-25.11-10.99-38.53-16.89C321.52,447.75,360.85,447.43,379.8,464.62z"/>
	<path class="st0" d="M374.71,491.2c-6.18,8.95-15.17,12.61-24.93,14.5c-14.15,2.74-27.99,0.65-42.9-3.89
		c3.15-1.8,5.29-3.06,7.47-4.26c1.74-0.95,3.53-1.83,5.31-2.73C342.98,483.14,349.12,482.72,374.71,491.2z"/>
	<path class="st0" d="M340.24,516.58c-21.25,9.17-41.92,11.34-64.85,6.3c7.6-5.33,14.12-9.98,20.77-14.45
		c0.72-0.49,2.26-0.26,3.2,0.15c12.22,5.39,25.08,7.36,38.33,7.4C338.1,515.98,338.52,516.17,340.24,516.58z"/>
	<path class="st0" d="M206.75,469.56c17.29,0.68,33.12,2.65,48.28,8.38c0.12,0.56,0.24,1.13,0.36,1.69
		c-8.58,2.38-17.24,4.53-25.72,7.22c-8.17,2.59-13.57-0.03-17.2-7.53C210.98,476.24,209.02,473.39,206.75,469.56z"/>
	<path class="st0" d="M366.3,479.56c6.9-3.24,13.15-6.21,19.45-9.05c0.71-0.32,1.76,0.1,2.65,0.18c-0.1,0.88-0.19,1.77-0.3,2.65
		c-0.02,0.16-0.14,0.3-0.21,0.45c-4.84,9.5-4.92,9.54-15.52,7.13C370.61,480.51,368.83,480.12,366.3,479.56z"/>
</g>
</svg>
