<?xml version="1.0" encoding="utf-8"?>
<!-- Generator: Adobe Illustrator 23.0.1, SVG Export Plug-In . SVG Version: 6.00 Build 0)  -->
<svg version="1.1" id="Calque_1" xmlns="http://www.w3.org/2000/svg" xmlns:xlink="http://www.w3.org/1999/xlink" x="0px" y="0px"
	 viewBox="0 0 595.28 571.55" style="enable-background:new 0 0 595.28 571.55;" xml:space="preserve">
<style type="text/css">
	.st0{stroke:#000000;stroke-width:7;stroke-miterlimit:10;}
	.st1{fill:#FFFFFF;stroke:#000000;stroke-width:7;stroke-miterlimit:10;}
</style>
<g>
	<path class="st0" d="M276.34,18.6c13.34,0,26.68,0,40.03,0c2.23,0.62,4.42,1.52,6.69,1.82c112.95,14.95,187.81,77.06,225.56,183.82
		c6.67,18.87,8.53,39.44,12.61,59.22c0,13.34,0,26.68,0,40.03c-0.67,2.97-1.58,5.91-1.99,8.91
		c-14.06,103.32-69.68,175.63-165.01,216.2c-24.35,10.36-51.83,13.37-77.87,19.76c-13.34,0-26.68,0-40.03,0
		c-2.21-0.66-4.38-1.68-6.64-1.92C161.05,534.89,72.14,460.88,42.02,356.02c-4.91-17.11-7.1-35-10.55-52.53c0-13.34,0-26.68,0-40.03
		c0.67-2.96,1.64-5.89,1.97-8.89C45.57,145.58,122.39,55.89,228.2,27.93C243.97,23.76,260.28,21.66,276.34,18.6z M532.23,337.74
		c20.81-73.99-1.91-174.98-80.54-241.19C377.92,34.44,269.46,22.08,184.2,68.28C106.26,110.51,63.84,176.84,54.07,264.71
		c2.51,0.68,3.21,1.05,3.9,1.02c1.95-0.1,3.92-0.21,5.84-0.58c42.21-8.07,82.7-3.16,120.76,17.08c8.56,4.55,14.34,3.19,21.86-1.93
		c34.89-23.81,72.82-39.29,115.75-40.65c43.99-1.39,83.3,13.55,119.64,36.1C472.65,294.87,501.79,316.72,532.23,337.74z
		 M518.5,357.75c-39.04-32.8-78.26-62.47-124.15-82.02c-30.19-12.86-61.47-18.14-94.16-12.13c-29.99,5.51-56.96,17.71-82.12,35.56
		c24.54,15.56,47.86,30.69,71.64,45.07c3.41,2.06,9.56,2,13.46,0.46c68.34-27.14,133.77-23.88,195.82,17.74
		c2.5,1.68,5.04,3.31,7.73,5.08C510.51,364.37,513.79,361.65,518.5,357.75z M111.65,374.09c1.23,0.29,3.48,1.06,5.79,1.32
		c33.9,3.84,67.3,9.49,98.11,25.38c1.86,0.96,5.5,0.58,7.23-0.67c17.34-12.5,34.46-25.32,52.97-39.04
		c-25.52-15.76-49.36-30.69-73.52-45.06c-2.35-1.4-7.52-0.51-10.05,1.24C165.27,335.93,138.62,354.98,111.65,374.09z M70.41,370.83
		c36.45-22.72,71.06-44.3,107.57-67.06c-39.58-21.99-77.79-24.46-117.22-15.96c-2.69,0.58-6.64,4.93-6.54,7.39
		C55.2,319.85,59.57,343.88,70.41,370.83z M271.26,471.49c-14.62-11.76-29.28-22.82-43.03-34.91c-7.31-6.42-12.93-6.36-21.57-2.15
		c-13.59,6.62-28.14,11.45-42.61,16.01c-10.95,3.45-22.4,5.31-35.3,8.25c25.23,23.98,52.75,41.11,83.99,52.18
		c2.52,0.89,6.75-0.39,9.11-2.12C238.22,496.75,254.3,484.35,271.26,471.49z M294.22,374.48c-18.25,13.76-36.86,27.79-56.49,42.58
		c16.54,12.77,32.12,24.56,47.39,36.73c5.53,4.4,9.87,3.35,15.67,0.21c19.58-10.58,39.52-20.49,59.39-30.53
		c4.55-2.3,9.34-4.15,14.23-6.3C347.47,402.83,321.64,389.07,294.22,374.48z M487.77,382.92c-44.61-40.49-137.21-39.73-170.82-18.07
		c31.61,13.91,61.12,26.96,90.72,39.78c2.28,0.99,5.49,1,7.91,0.28C438.69,398.02,461.73,390.89,487.77,382.92z M475.77,445.5
		c-60.24-19.98-74.69-18.99-129.64,8.54c-4.19,2.1-8.39,4.17-12.49,6.42c-5.13,2.8-10.16,5.78-17.58,10.02
		c35.11,10.69,67.69,15.61,101.01,9.16C440.05,475.18,461.23,466.57,475.77,445.5z M394.62,505.23c-4.04-0.95-5.03-1.39-6.03-1.4
		c-31.18-0.1-61.47-4.74-90.24-17.43c-2.2-0.97-5.83-1.5-7.53-0.35c-15.65,10.54-31.02,21.49-48.9,34.03
		C295.93,531.93,344.58,526.83,394.62,505.23z M80.33,394.55c5.33,9.01,9.96,15.72,13.47,22.97c8.54,17.67,21.26,23.83,40.49,17.73
		c19.97-6.33,40.36-11.38,60.56-16.99c-0.28-1.33-0.56-2.65-0.84-3.98C158.31,400.77,121.03,396.14,80.33,394.55z M455.99,418.08
		c5.95,1.33,10.14,2.25,14.32,3.2c24.95,5.67,25.14,5.58,36.53-16.79c0.18-0.35,0.45-0.69,0.5-1.06c0.27-2.07,0.48-4.15,0.7-6.23
		c-2.1-0.19-4.57-1.19-6.25-0.43C486.94,403.45,472.24,410.46,455.99,418.08z"/>
	<path class="st0" d="M316.36,548.36c26.04-6.39,53.52-9.4,77.87-19.76c95.34-40.56,150.95-112.87,165.01-216.2
		c0.41-3.01,1.31-5.94,1.99-8.91"/>
	<path class="st0" d="M31.47,303.49c3.45,17.53,5.64,35.42,10.55,52.53C72.14,460.88,161.05,534.89,269.7,546.44
		c2.25,0.24,4.43,1.26,6.64,1.92"/>
	<path class="st0" d="M276.34,18.6c-16.06,3.06-32.37,5.16-48.13,9.33C122.39,55.89,45.57,145.58,33.44,254.57
		c-0.33,3-1.3,5.93-1.97,8.89"/>
	<path class="st0" d="M561.23,263.46c-4.08-19.78-5.94-40.35-12.61-59.22C510.87,97.48,436.01,35.37,323.06,20.42
		c-2.27-0.3-4.46-1.2-6.69-1.82"/>
	<path class="st1" d="M532.23,337.74c-30.44-21.02-59.58-42.87-90.41-62c-36.34-22.55-75.65-37.49-119.64-36.1
		c-42.93,1.36-80.87,16.83-115.75,40.65c-7.51,5.13-13.3,6.49-21.86,1.93c-38.06-20.24-78.55-25.15-120.76-17.08
		c-1.91,0.37-3.89,0.48-5.84,0.58c-0.69,0.03-1.39-0.34-3.9-1.02c9.77-87.87,52.19-154.2,130.13-196.43
		c85.26-46.2,193.73-33.84,267.49,28.28C530.31,162.77,553.04,263.75,532.23,337.74z"/>
	<path class="st1" d="M518.5,357.75c-4.7,3.89-7.99,6.61-11.79,9.76c-2.69-1.77-5.23-3.4-7.73-5.08
		c-62.04-41.61-127.47-44.87-195.82-17.74c-3.9,1.55-10.05,1.6-13.46-0.46c-23.77-14.38-47.1-29.51-71.64-45.07
		c25.16-17.85,52.13-30.05,82.12-35.56c32.69-6.01,63.97-0.73,94.16,12.13C440.24,295.29,479.45,324.95,518.5,357.75z"/>
	<path class="st1" d="M111.65,374.09c26.97-19.12,53.61-38.17,80.53-56.83c2.53-1.75,7.7-2.64,10.05-1.24
		c24.16,14.37,48,29.3,73.52,45.06c-18.51,13.72-35.63,26.54-52.97,39.04c-1.73,1.25-5.37,1.63-7.23,0.67
		c-30.81-15.88-64.21-21.53-98.11-25.38C115.14,375.15,112.89,374.38,111.65,374.09z"/>
	<path class="st1" d="M70.41,370.83c-10.83-26.95-15.21-50.98-16.2-75.63c-0.1-2.46,3.85-6.81,6.54-7.39
		c39.43-8.5,77.64-6.04,117.22,15.96C141.47,326.53,106.86,348.11,70.41,370.83z"/>
	<path class="st1" d="M271.26,471.49c-16.96,12.86-33.05,25.25-49.42,37.26c-2.36,1.73-6.59,3.02-9.11,2.12
		c-31.24-11.06-58.75-28.2-83.99-52.18c12.9-2.95,24.35-4.8,35.3-8.25c14.47-4.56,29.02-9.39,42.61-16.01
		c8.64-4.21,14.26-4.27,21.57,2.15C241.98,448.67,256.64,459.73,271.26,471.49z"/>
	<path class="st1" d="M294.22,374.48c27.42,14.6,53.26,28.35,80.19,42.69c-4.89,2.15-9.68,3.99-14.23,6.3
		c-19.86,10.05-39.81,19.96-59.39,30.53c-5.8,3.13-10.14,4.19-15.67-0.21c-15.27-12.17-30.85-23.95-47.39-36.73
		C257.35,402.26,275.96,388.24,294.22,374.48z"/>
	<path class="st1" d="M487.77,382.92c-26.04,7.97-49.08,15.11-72.19,21.99c-2.42,0.72-5.63,0.71-7.91-0.28
		c-29.61-12.81-59.11-25.87-90.72-39.78C350.56,343.18,443.16,342.43,487.77,382.92z"/>
	<path class="st1" d="M475.77,445.5c-14.54,21.08-35.73,29.69-58.7,34.14c-33.32,6.45-65.9,1.54-101.01-9.16
		c7.42-4.24,12.45-7.21,17.58-10.02c4.11-2.25,8.31-4.32,12.49-6.42C401.09,426.5,415.53,425.51,475.77,445.5z"/>
	<path class="st1" d="M394.62,505.23c-50.03,21.6-98.69,26.7-152.7,14.84c17.89-12.54,33.26-23.49,48.9-34.03
		c1.7-1.14,5.33-0.62,7.53,0.35c28.77,12.7,59.05,17.33,90.24,17.43C389.58,503.84,390.58,504.28,394.62,505.23z"/>
	<path class="st1" d="M80.33,394.55c40.7,1.6,77.98,6.23,113.68,19.74c0.28,1.33,0.56,2.65,0.84,3.98
		c-20.2,5.61-40.59,10.66-60.56,16.99c-19.24,6.1-31.96-0.06-40.49-17.73C90.29,410.27,85.66,403.55,80.33,394.55z"/>
	<path class="st1" d="M455.99,418.08c16.26-7.62,30.96-14.62,45.8-21.32c1.68-0.76,4.15,0.24,6.25,0.43
		c-0.23,2.08-0.44,4.16-0.7,6.23c-0.05,0.37-0.32,0.71-0.5,1.06c-11.39,22.37-11.58,22.46-36.53,16.79
		C466.12,420.32,461.94,419.4,455.99,418.08z"/>
</g>
</svg>
<?xml version="1.0" encoding="utf-8"?>
<!-- Generator: Adobe Illustrator 23.0.1, SVG Export Plug-In . SVG Version: 6.00 Build 0)  -->
<svg version="1.1" id="Calque_1" xmlns="http://www.w3.org/2000/svg" xmlns:xlink="http://www.w3.org/1999/xlink" x="0px" y="0px"
	 viewBox="0 0 595.28 571.55" style="enable-background:new 0 0 595.28 571.55;" xml:space="preserve">
<style type="text/css">
	.st0{stroke:#000000;stroke-width:7;stroke-miterlimit:10;}
	.st1{fill:#FFFFFF;stroke:#000000;stroke-width:7;stroke-miterlimit:10;}
</style>
<g>
	<path class="st0" d="M276.34,18.6c13.34,0,26.68,0,40.03,0c2.23,0.62,4.42,1.52,6.69,1.82c112.95,14.95,187.81,77.06,225.56,183.82
		c6.67,18.87,8.53,39.44,12.61,59.22c0,13.34,0,26.68,0,40.03c-0.67,2.97-1.58,5.91-1.99,8.91
		c-14.06,103.32-69.68,175.63-165.01,216.2c-24.35,10.36-51.83,13.37-77.87,19.76c-13.34,0-26.68,0-40.03,0
		c-2.21-0.66-4.38-1.68-6.64-1.92C161.05,534.89,72.14,460.88,42.02,356.02c-4.91-17.11-7.1-35-10.55-52.53c0-13.34,0-26.68,0-40.03
		c0.67-2.96,1.64-5.89,1.97-8.89C45.57,145.58,122.39,55.89,228.2,27.93C243.97,23.76,260.28,21.66,276.34,18.6z M532.23,337.74
		c20.81-73.99-1.91-174.98-80.54-241.19C377.92,34.44,269.46,22.08,184.2,68.28C106.26,110.51,63.84,176.84,54.07,264.71
		c2.51,0.68,3.21,1.05,3.9,1.02c1.95-0.1,3.92-0.21,5.84-0.58c42.21-8.07,82.7-3.16,120.76,17.08c8.56,4.55,14.34,3.19,21.86-1.93
		c34.89-23.81,72.82-39.29,115.75-40.65c43.99-1.39,83.3,13.55,119.64,36.1C472.65,294.87,501.79,316.72,532.23,337.74z
		 M518.5,357.75c-39.04-32.8-78.26-62.47-124.15-82.02c-30.19-12.86-61.47-18.14-94.16-12.13c-29.99,5.51-56.96,17.71-82.12,35.56
		c24.54,15.56,47.86,30.69,71.64,45.07c3.41,2.06,9.56,2,13.46,0.46c68.34-27.14,133.77-23.88,195.82,17.74
		c2.5,1.68,5.04,3.31,7.73,5.08C510.51,364.37,513.79,361.65,518.5,357.75z M111.65,374.09c1.23,0.29,3.48,1.06,5.79,1.32
		c33.9,3.84,67.3,9.49,98.11,25.38c1.86,0.96,5.5,0.58,7.23-0.67c17.34-12.5,34.46-25.32,52.97-39.04
		c-25.52-15.76-49.36-30.69-73.52-45.06c-2.35-1.4-7.52-0.51-10.05,1.24C165.27,335.93,138.62,354.98,111.65,374.09z M70.41,370.83
		c36.45-22.72,71.06-44.3,107.57-67.06c-39.58-21.99-77.79-24.46-117.22-15.96c-2.69,0.58-6.64,4.93-6.54,7.39
		C55.2,319.85,59.57,343.88,70.41,370.83z M271.26,471.49c-14.62-11.76-29.28-22.82-43.03-34.91c-7.31-6.42-12.93-6.36-21.57-2.15
		c-13.59,6.62-28.14,11.45-42.61,16.01c-10.95,3.45-22.4,5.31-35.3,8.25c25.23,23.98,52.75,41.11,83.99,52.18
		c2.52,0.89,6.75-0.39,9.11-2.12C238.22,496.75,254.3,484.35,271.26,471.49z M294.22,374.48c-18.25,13.76-36.86,27.79-56.49,42.58
		c16.54,12.77,32.12,24.56,47.39,36.73c5.53,4.4,9.87,3.35,15.67,0.21c19.58-10.58,39.52-20.49,59.39-30.53
		c4.55-2.3,9.34-4.15,14.23-6.3C347.47,402.83,321.64,389.07,294.22,374.48z M487.77,382.92c-44.61-40.49-137.21-39.73-170.82-18.07
		c31.61,13.91,61.12,26.96,90.72,39.78c2.28,0.99,5.49,1,7.91,0.28C438.69,398.02,461.73,390.89,487.77,382.92z M475.77,445.5
		c-60.24-19.98-74.69-18.99-129.64,8.54c-4.19,2.1-8.39,4.17-12.49,6.42c-5.13,2.8-10.16,5.78-17.58,10.02
		c35.11,10.69,67.69,15.61,101.01,9.16C440.05,475.18,461.23,466.57,475.77,445.5z M394.62,505.23c-4.04-0.95-5.03-1.39-6.03-1.4
		c-31.18-0.1-61.47-4.74-90.24-17.43c-2.2-0.97-5.83-1.5-7.53-0.35c-15.65,10.54-31.02,21.49-48.9,34.03
		C295.93,531.93,344.58,526.83,394.62,505.23z M80.33,394.55c5.33,9.01,9.96,15.72,13.47,22.97c8.54,17.67,21.26,23.83,40.49,17.73
		c19.97-6.33,40.36-11.38,60.56-16.99c-0.28-1.33-0.56-2.65-0.84-3.98C158.31,400.77,121.03,396.14,80.33,394.55z M455.99,418.08
		c5.95,1.33,10.14,2.25,14.32,3.2c24.95,5.67,25.14,5.58,36.53-16.79c0.18-0.35,0.45-0.69,0.5-1.06c0.27-2.07,0.48-4.15,0.7-6.23
		c-2.1-0.19-4.57-1.19-6.25-0.43C486.94,403.45,472.24,410.46,455.99,418.08z"/>
	<path class="st0" d="M316.36,548.36c26.04-6.39,53.52-9.4,77.87-19.76c95.34-40.56,150.95-112.87,165.01-216.2
		c0.41-3.01,1.31-5.94,1.99-8.91"/>
	<path class="st0" d="M31.47,303.49c3.45,17.53,5.64,35.42,10.55,52.53C72.14,460.88,161.05,534.89,269.7,546.44
		c2.25,0.24,4.43,1.26,6.64,1.92"/>
	<path class="st0" d="M276.34,18.6c-16.06,3.06-32.37,5.16-48.13,9.33C122.39,55.89,45.57,145.58,33.44,254.57
		c-0.33,3-1.3,5.93-1.97,8.89"/>
	<path class="st0" d="M561.23,263.46c-4.08-19.78-5.94-40.35-12.61-59.22C510.87,97.48,436.01,35.37,323.06,20.42
		c-2.27-0.3-4.46-1.2-6.69-1.82"/>
	<path class="st1" d="M532.23,337.74c-30.44-21.02-59.58-42.87-90.41-62c-36.34-22.55-75.65-37.49-119.64-36.1
		c-42.93,1.36-80.87,16.83-115.75,40.65c-7.51,5.13-13.3,6.49-21.86,1.93c-38.06-20.24-78.55-25.15-120.76-17.08
		c-1.91,0.37-3.89,0.48-5.84,0.58c-0.69,0.03-1.39-0.34-3.9-1.02c9.77-87.87,52.19-154.2,130.13-196.43
		c85.26-46.2,193.73-33.84,267.49,28.28C530.31,162.77,553.04,263.75,532.23,337.74z"/>
	<path class="st1" d="M518.5,357.75c-4.7,3.89-7.99,6.61-11.79,9.76c-2.69-1.77-5.23-3.4-7.73-5.08
		c-62.04-41.61-127.47-44.87-195.82-17.74c-3.9,1.55-10.05,1.6-13.46-0.46c-23.77-14.38-47.1-29.51-71.64-45.07
		c25.16-17.85,52.13-30.05,82.12-35.56c32.69-6.01,63.97-0.73,94.16,12.13C440.24,295.29,479.45,324.95,518.5,357.75z"/>
	<path class="st1" d="M111.65,374.09c26.97-19.12,53.61-38.17,80.53-56.83c2.53-1.75,7.7-2.64,10.05-1.24
		c24.16,14.37,48,29.3,73.52,45.06c-18.51,13.72-35.63,26.54-52.97,39.04c-1.73,1.25-5.37,1.63-7.23,0.67
		c-30.81-15.88-64.21-21.53-98.11-25.38C115.14,375.15,112.89,374.38,111.65,374.09z"/>
	<path class="st1" d="M70.41,370.83c-10.83-26.95-15.21-50.98-16.2-75.63c-0.1-2.46,3.85-6.81,6.54-7.39
		c39.43-8.5,77.64-6.04,117.22,15.96C141.47,326.53,106.86,348.11,70.41,370.83z"/>
	<path class="st1" d="M271.26,471.49c-16.96,12.86-33.05,25.25-49.42,37.26c-2.36,1.73-6.59,3.02-9.11,2.12
		c-31.24-11.06-58.75-28.2-83.99-52.18c12.9-2.95,24.35-4.8,35.3-8.25c14.47-4.56,29.02-9.39,42.61-16.01
		c8.64-4.21,14.26-4.27,21.57,2.15C241.98,448.67,256.64,459.73,271.26,471.49z"/>
	<path class="st1" d="M294.22,374.48c27.42,14.6,53.26,28.35,80.19,42.69c-4.89,2.15-9.68,3.99-14.23,6.3
		c-19.86,10.05-39.81,19.96-59.39,30.53c-5.8,3.13-10.14,4.19-15.67-0.21c-15.27-12.17-30.85-23.95-47.39-36.73
		C257.35,402.26,275.96,388.24,294.22,374.48z"/>
	<path class="st1" d="M487.77,382.92c-26.04,7.97-49.08,15.11-72.19,21.99c-2.42,0.72-5.63,0.71-7.91-0.28
		c-29.61-12.81-59.11-25.87-90.72-39.78C350.56,343.18,443.16,342.43,487.77,382.92z"/>
	<path class="st1" d="M475.77,445.5c-14.54,21.08-35.73,29.69-58.7,34.14c-33.32,6.45-65.9,1.54-101.01-9.16
		c7.42-4.24,12.45-7.21,17.58-10.02c4.11-2.25,8.31-4.32,12.49-6.42C401.09,426.5,415.53,425.51,475.77,445.5z"/>
	<path class="st1" d="M394.62,505.23c-50.03,21.6-98.69,26.7-152.7,14.84c17.89-12.54,33.26-23.49,48.9-34.03
		c1.7-1.14,5.33-0.62,7.53,0.35c28.77,12.7,59.05,17.33,90.24,17.43C389.58,503.84,390.58,504.28,394.62,505.23z"/>
	<path class="st1" d="M80.33,394.55c40.7,1.6,77.98,6.23,113.68,19.74c0.28,1.33,0.56,2.65,0.84,3.98
		c-20.2,5.61-40.59,10.66-60.56,16.99c-19.24,6.1-31.96-0.06-40.49-17.73C90.29,410.27,85.66,403.55,80.33,394.55z"/>
	<path class="st1" d="M455.99,418.08c16.26-7.62,30.96-14.62,45.8-21.32c1.68-0.76,4.15,0.24,6.25,0.43
		c-0.23,2.08-0.44,4.16-0.7,6.23c-0.05,0.37-0.32,0.71-0.5,1.06c-11.39,22.37-11.58,22.46-36.53,16.79
		C466.12,420.32,461.94,419.4,455.99,418.08z"/>
</g>
</svg>
