<?xml version="1.0" encoding="utf-8"?>
<!-- Generator: Adobe Illustrator 23.0.1, SVG Export Plug-In . SVG Version: 6.00 Build 0)  -->
<svg version="1.1" id="Calque_1" xmlns="http://www.w3.org/2000/svg" xmlns:xlink="http://www.w3.org/1999/xlink" x="0px" y="0px"
	 viewBox="0 0 595.28 841.89" style="enable-background:new 0 0 595.28 841.89;" xml:space="preserve">
<style type="text/css">
	.st0{fill:none;stroke:url(#SVGID_1_);stroke-width:5;stroke-miterlimit:10;}
	.st1{fill:none;stroke:url(#SVGID_2_);stroke-width:5;stroke-miterlimit:10;}
	.st2{fill:none;stroke:url(#SVGID_3_);stroke-width:5;stroke-miterlimit:10;}
	.st3{fill:none;stroke:url(#SVGID_4_);stroke-width:5;stroke-miterlimit:10;}
</style>
<g>
	<linearGradient id="SVGID_1_" gradientUnits="userSpaceOnUse" x1="193.9882" y1="128.0315" x2="392.2303" y2="128.0315">
		<stop  offset="0" style="stop-color:#DB2CC0"/>
		<stop  offset="1" style="stop-color:#0BD8F5"/>
	</linearGradient>
	<path class="st0" d="M274.66,190.39c0,0-0.01,0-0.01,0c0,7.99-0.04,15.98,0.02,23.97c0.02,2.81,1.11,5.44,3.21,7.18
		c4.45,3.69,11.93,3.49,15.21-2.97c0.87-1.72,1.27-3.86,1.28-5.81c0.1-15.46,0.06-30.92,0.06-46.38c0-0.69-0.14-1.48,0.15-2.03
		c0.31-0.58,1.01-1.13,1.64-1.29c0.51-0.13,1.22,0.25,1.75,0.55c4.52,2.59,9.01,5.22,13.52,7.82c7.88,4.53,15.79,9.01,23.67,13.57
		c4.77,2.76,6.16,6.63,4.2,11.82c-0.74,1.97-1.77,3.84-2.69,5.74c-1.19,2.48-0.7,4.15,1.71,5.45c3.77,2.03,7.52,4.1,11.36,6
		c5.9,2.94,12.17,4.71,18.78,4.85c3.64,0.07,7.31-0.28,10.94-0.68c3.12-0.34,6.02-1.49,8.43-3.55c0.74-0.63,1.57-1.63,1.63-2.5
		c0.27-4.12,0.49-8.31-0.8-12.28c-2-6.22-5.23-11.84-9.52-16.77c-4.28-4.92-9.32-8.98-14.63-12.75c-3.41-2.43-5.21-2.24-7.83,1.09
		c-1.23,1.57-2.62,3.03-4.02,4.47c-1.25,1.28-2.82,1.8-4.64,1.93c-2.69,0.2-4.81-0.87-7.04-2.2c-10.53-6.24-21.15-12.33-31.74-18.47
		c-3.36-1.95-6.59-4.11-8.09-7.88c-1.26-3.17-2.29-6.44-3.23-9.73c-1.36-4.78-2.52-9.61-3.82-14.4c-1.68-6.18-3.47-12.33-5.11-18.53
		c-1.58-5.96-2.96-11.98-4.53-17.94c-1.48-5.64-2.92-11.29-4.72-16.83c-0.81-2.5-2.13-5-3.78-7.05c-3.71-4.58-8.99-6.25-14.66-6.33
		c-10.92-0.16-21.84-0.11-32.76-0.04c-3.86,0.02-7.23,1.47-10.15,4.05c-3.87,3.41-5.35,8.32-8.07,12.46
		c-2.47,3.76-4.81,7.61-7.05,11.5c-1.98,3.44-3.99,6.9-5.54,10.54c-0.88,2.07-0.92,4.68,0.51,6.61c1.48,2.01,3.27,3.96,5.32,5.34
		c4.09,2.77,8.45,5.12,12.69,7.67c1.81,1.09,3.6,2.24,5.38,3.37c1.14,0.72,1.37,1.77,1.02,3.01c-1.37,4.75-0.05,8.78,3.56,11.94
		c2.09,1.83,4.43,3.45,6.85,4.82c6.32,3.58,12.74,6.97,19.11,10.45c5.57,3.04,11.07,6.23,16.71,9.14c3.7,1.91,5.86,4.44,5.77,8.85
		C274.54,175.56,274.66,182.97,274.66,190.39z M223.73,147.02c0.35,2.55,0.47,4.74,0.97,6.85c1.04,4.44,2.08,8.85,1.74,13.45
		c-0.19,2.52-0.77,4.88-2.28,6.95c-2.28,3.13-4.77,6.12-7.13,9.2c-5.64,7.36-11.21,14.75-16.89,22.08c-2.3,2.96-4.01,5.94-3.59,9.8
		c0.41,3.76,4.24,7.56,8.41,7.62c4.12,0.05,7.11-1.96,9.39-4.79c5.01-6.22,9.9-12.53,14.76-18.85c4.33-5.64,8.6-11.32,12.79-17.04
		c1.42-1.94,2.76-3.98,3.72-6.13c1.81-4.03,1.49-8.35,1.07-12.53c-0.31-3.08-1.72-6-4.96-7.69c-4.07-2.12-8.18-4.18-12.29-6.24
		C227.66,148.81,225.83,148,223.73,147.02z M308.24,48.72c0-9.39-6.71-16.59-15.46-16.61c-9.9-0.01-17.12,7.08-17.61,16.3
		c-0.42,7.82,8.46,17.46,17.5,16.79C301.34,64.57,308.24,57.87,308.24,48.72z"/>
	<linearGradient id="SVGID_2_" gradientUnits="userSpaceOnUse" x1="194.6624" y1="141.1401" x2="392.2303" y2="141.1401">
		<stop  offset="0" style="stop-color:#DB2CC0"/>
		<stop  offset="1" style="stop-color:#0BD8F5"/>
	</linearGradient>
	<path class="st1" d="M274.66,190.39c0-7.41-0.12-14.83,0.05-22.24c0.1-4.41-2.06-6.94-5.77-8.85c-5.64-2.91-11.14-6.09-16.71-9.14
		c-6.37-3.48-12.8-6.87-19.11-10.45c-2.42-1.37-4.76-2.99-6.85-4.82c-3.61-3.17-4.93-7.2-3.56-11.94c0.36-1.23,0.12-2.28-1.02-3.01
		c-1.79-1.14-3.57-2.28-5.38-3.37c-4.24-2.55-8.6-4.9-12.69-7.67c-2.05-1.39-3.84-3.34-5.32-5.34c-1.43-1.93-1.39-4.54-0.51-6.61
		c1.55-3.64,3.56-7.1,5.54-10.54c2.25-3.89,4.59-7.74,7.05-11.5c2.71-4.13,4.2-9.05,8.07-12.46c2.93-2.58,6.3-4.03,10.15-4.05
		c10.92-0.07,21.84-0.12,32.76,0.04c5.67,0.08,10.95,1.75,14.66,6.33c1.65,2.04,2.97,4.54,3.78,7.05c1.8,5.54,3.24,11.2,4.72,16.83
		c1.57,5.97,2.95,11.98,4.53,17.94c1.64,6.19,3.43,12.35,5.11,18.53c1.3,4.79,2.46,9.63,3.82,14.4c0.94,3.28,1.97,6.56,3.23,9.73
		c1.5,3.77,4.73,5.93,8.09,7.88c10.59,6.14,21.21,12.22,31.74,18.47c2.24,1.33,4.36,2.4,7.04,2.2c1.82-0.13,3.39-0.65,4.64-1.93
		c1.4-1.43,2.79-2.89,4.02-4.47c2.61-3.33,4.41-3.52,7.83-1.09c5.3,3.77,10.35,7.83,14.63,12.75c4.29,4.94,7.52,10.55,9.52,16.77
		c1.28,3.98,1.07,8.17,0.8,12.28c-0.06,0.88-0.89,1.87-1.63,2.5c-2.41,2.06-5.32,3.21-8.43,3.55c-3.63,0.4-7.3,0.75-10.94,0.68
		c-6.6-0.14-12.87-1.91-18.78-4.85c-3.83-1.91-7.58-3.98-11.36-6c-2.41-1.3-2.91-2.96-1.71-5.45c0.92-1.9,1.94-3.77,2.69-5.74
		c1.96-5.19,0.57-9.06-4.2-11.82c-7.87-4.55-15.78-9.04-23.67-13.57c-4.52-2.59-9.01-5.23-13.52-7.82
		c-0.53-0.31-1.25-0.68-1.75-0.55c-0.63,0.16-1.33,0.71-1.64,1.29c-0.29,0.55-0.15,1.34-0.15,2.03
		c-0.01,15.46,0.04,30.92-0.06,46.38c-0.01,1.95-0.41,4.09-1.28,5.81c-3.29,6.46-10.76,6.66-15.21,2.97
		c-2.09-1.74-3.19-4.36-3.21-7.18c-0.06-7.99-0.02-15.98-0.02-23.97C274.65,190.39,274.65,190.39,274.66,190.39z M249.25,76.31
		c-0.59-0.16-0.81-0.26-1.03-0.26c-4.82,0.01-9.65-0.07-14.46,0.11c-2.08,0.07-4.07,0.88-5.39,2.67c-1.66,2.25-3.33,4.51-4.81,6.88
		c-2.8,4.48-5.47,9.04-8.19,13.56c-1.42,2.36-1.22,3.15,1.19,4.49c3.33,1.85,6.7,3.64,10.01,5.52c2.8,1.59,3.23,1.54,4.81-1.19
		c5.51-9.55,11.02-19.11,16.5-28.68C248.41,78.49,248.75,77.46,249.25,76.31z M280.16,138.04c-0.11-0.52-0.15-0.75-0.21-0.97
		c-1.15-4.31-2.28-8.63-3.47-12.94c-1.58-5.73-3.2-11.46-4.84-17.18c-0.14-0.48-0.61-0.85-0.93-1.28c-0.42,0.32-0.97,0.55-1.24,0.97
		c-0.6,0.9-1.04,1.91-1.58,2.84c-3.17,5.5-6.35,11-9.53,16.49c-0.57,0.98-0.38,1.75,0.6,2.32c2.67,1.56,5.33,3.11,8,4.67
		c3.46,2.02,6.91,4.06,10.4,6.02c0.53,0.3,1.34,0.47,1.89,0.28C279.7,139.12,279.94,138.36,280.16,138.04z"/>
	<linearGradient id="SVGID_3_" gradientUnits="userSpaceOnUse" x1="193.9882" y1="184.1326" x2="249.5087" y2="184.1326">
		<stop  offset="0" style="stop-color:#DB2CC0"/>
		<stop  offset="1" style="stop-color:#0BD8F5"/>
	</linearGradient>
	<path class="st2" d="M223.73,147.02c2.1,0.99,3.93,1.8,5.71,2.69c4.11,2.06,8.22,4.12,12.29,6.24c3.24,1.69,4.65,4.61,4.96,7.69
		c0.42,4.18,0.75,8.5-1.07,12.53c-0.97,2.15-2.3,4.19-3.72,6.13c-4.19,5.72-8.46,11.4-12.79,17.04
		c-4.86,6.32-9.75,12.63-14.76,18.85c-2.28,2.83-5.27,4.84-9.39,4.79c-4.17-0.06-8-3.86-8.41-7.62c-0.42-3.86,1.29-6.84,3.59-9.8
		c5.68-7.33,11.25-14.73,16.89-22.08c2.36-3.08,4.85-6.07,7.13-9.2c1.51-2.07,2.09-4.43,2.28-6.95c0.34-4.61-0.69-9.01-1.74-13.45
		C224.2,151.75,224.08,149.57,223.73,147.02z"/>
	<linearGradient id="SVGID_4_" gradientUnits="userSpaceOnUse" x1="272.6553" y1="48.6791" x2="310.7437" y2="48.6791">
		<stop  offset="0" style="stop-color:#DB2CC0"/>
		<stop  offset="1" style="stop-color:#0BD8F5"/>
	</linearGradient>
	<path class="st3" d="M308.24,48.72c0,9.15-6.9,15.84-15.57,16.49c-9.04,0.67-17.92-8.97-17.5-16.79c0.5-9.22,7.72-16.31,17.61-16.3
		C301.54,32.13,308.25,39.33,308.24,48.72z"/>
</g>
</svg>
